<svg width="64" height="64" viewBox="0 0 64 64" fill="none" xmlns="http://www.w3.org/2000/svg">
<rect x="63" y="63" width="18" height="17" rx="2" transform="rotate(-180 63 63)" fill="#80DFFD"/>
<rect x="63" y="17" width="18" height="16" rx="2" transform="rotate(-180 63 17)" fill="#80DFFD"/>
<rect x="41" y="17" width="40" height="16" rx="2" transform="rotate(-180 41 17)" fill="#80DFFD"/>
<rect x="41" y="63" width="40" height="17" rx="2" transform="rotate(-180 41 63)" fill="#80DFFD"/>
<rect width="62" height="21" rx="2" transform="matrix(1 -8.74228e-08 -8.74228e-08 -1 1 42)" fill="url(#paint0_linear_8086_16503)"/>
<path d="M15.5821 31.2537C15.5821 33.6418 13.6418 35.5821 11.2537 35.5821C8.86567 35.5821 7 33.6418 7 31.2537C7 28.8657 8.9403 27 11.2537 27C13.6418 27 15.5821 28.8657 15.5821 31.2537Z" stroke="white" stroke-width="2" stroke-miterlimit="10" stroke-linecap="round" stroke-linejoin="round"/>
<path d="M14.3882 34.4627L17.0001 37.0747" stroke="white" stroke-width="2" stroke-miterlimit="10" stroke-linecap="round" stroke-linejoin="round"/>
<defs>
<linearGradient id="paint0_linear_8086_16503" x1="-6.97495" y1="10.5" x2="24.3693" y2="47.2362" gradientUnits="userSpaceOnUse">
<stop offset="0.303004" stop-color="#273266"/>
<stop offset="1" stop-color="#1656B5"/>
</linearGradient>
</defs>
</svg>
