<svg width="64" height="64" viewBox="0 0 64 64" fill="none" xmlns="http://www.w3.org/2000/svg">
<rect width="25" height="25" rx="2" transform="matrix(-4.37114e-08 1 1 4.37114e-08 31 1)" fill="#4DB1FD"/>
<rect width="25" height="25" rx="2" transform="matrix(-4.37114e-08 1 1 4.37114e-08 1 31)" fill="#4DB1FD"/>
<rect width="26" height="26" rx="2" transform="matrix(-4.37114e-08 1 1 4.37114e-08 1 1)" fill="url(#paint0_linear_8058_22255)"/>
<rect width="33" height="33" rx="2" transform="matrix(-4.37114e-08 1 1 4.37114e-08 30 30)" fill="url(#paint1_linear_8058_22255)"/>
<path d="M15.3363 16.863L10.5401 19.6322C10.2203 19.8168 9.74973 19.5555 9.85108 19.1773C9.86919 18.101 9.88398 16.2805 9.0623 14.3035C7.69584 10.8291 8.61468 8.913 10.2134 7.98996C11.8122 7.06692 13.931 7.22922 16.2567 10.1498C17.558 11.8499 19.142 12.7473 20.0831 13.2698C20.3814 13.4173 20.4523 13.9093 20.1326 14.0939L15.3363 16.863Z" stroke="white" stroke-width="2" stroke-miterlimit="10" stroke-linecap="round" stroke-linejoin="round"/>
<line x1="15.6966" y1="17.5262" x2="16.6966" y2="19.2582" stroke="white" stroke-width="2" stroke-linecap="round"/>
<path d="M42 50.0274C42.4167 54.2498 52 54.7745 52 49.4082C52 44.4546 42.8333 47.1668 42.7692 42.3906C42.828 38.3625 49.4974 38.7313 51.1667 41.2485" stroke="#FAFBFC" stroke-width="2" stroke-miterlimit="22.9256" stroke-linecap="round"/>
<path d="M47 37.9999V54.6666" stroke="#FAFBFC" stroke-width="2" stroke-miterlimit="22.9256" stroke-linecap="round"/>
<defs>
<linearGradient id="paint0_linear_8058_22255" x1="6.5" y1="35.3889" x2="42.6805" y2="23.3337" gradientUnits="userSpaceOnUse">
<stop offset="0.303004" stop-color="#273266"/>
<stop offset="1" stop-color="#1656B5"/>
</linearGradient>
<linearGradient id="paint1_linear_8058_22255" x1="8.25" y1="44.9167" x2="54.1714" y2="29.6159" gradientUnits="userSpaceOnUse">
<stop offset="0.303004" stop-color="#273266"/>
<stop offset="1" stop-color="#1656B5"/>
</linearGradient>
</defs>
</svg>
