<svg width="64" height="64" viewBox="0 0 64 64" fill="none" xmlns="http://www.w3.org/2000/svg">
<rect x="63" y="63" width="18" height="18" rx="2" transform="rotate(-180 63 63)" fill="#9CB2FF"/>
<rect x="41" y="63" width="40" height="40" rx="2" transform="rotate(-180 41 63)" fill="url(#paint0_linear_8058_22300)"/>
<rect x="41" y="63" width="40" height="40" rx="2" transform="rotate(-180 41 63)" fill="url(#paint1_linear_8058_22300)"/>
<rect x="63" y="41" width="18" height="18" rx="2" transform="rotate(-180 63 41)" fill="#9CB2FF"/>
<rect x="63" y="19" width="62" height="18" rx="2" transform="rotate(-180 63 19)" fill="#9CB2FF"/>
<path d="M19.1312 50.5336L19.2932 50.6953C22.3705 53.7682 27.2295 53.7682 30.3069 50.6953C31.4406 49.5632 31.1167 47.7841 29.821 46.9755L27.3915 45.5199C26.4197 45.0347 25.2859 45.1964 24.6381 45.8433C23.5043 46.9755 22.0466 46.9755 21.0748 46.0051L17.0257 41.8C16.0539 40.8296 16.0539 39.374 17.0257 38.4036C17.8355 37.7567 17.9975 36.6245 17.3496 35.6542L15.8919 33.2282C15.244 31.7726 13.3005 31.6108 12.1667 32.743C9.25132 35.6542 9.25132 40.6679 12.3287 43.5791L12.4906 43.7408L19.1312 50.5336Z" stroke="white" stroke-width="2" stroke-miterlimit="10" stroke-linecap="round" stroke-linejoin="round"/>
<defs>
<linearGradient id="paint0_linear_8058_22300" x1="51" y1="117.444" x2="106.662" y2="98.898" gradientUnits="userSpaceOnUse">
<stop offset="0.303004" stop-color="#273266"/>
<stop offset="1" stop-color="#1656B5"/>
</linearGradient>
<linearGradient id="paint1_linear_8058_22300" x1="51" y1="117.444" x2="106.662" y2="98.898" gradientUnits="userSpaceOnUse">
<stop offset="0.303004" stop-color="#273266"/>
<stop offset="1" stop-color="#1656B5"/>
</linearGradient>
</defs>
</svg>
